HIERARCHY
ROOT hip
{
  OFFSET 0 0 0
  CHANNELS 6 Xposition Yposition Zposition Zrotation Yrotation Xrotation
  JOINT abdomen
  {
    OFFSET 0 20.6881 -0.73152
    CHANNELS 3 Zrotation Xrotation Yrotation
    JOINT chest
    {
      OFFSET 0 11.7043 -0.48768
      CHANNELS 3 Zrotation Xrotation Yrotation
      JOINT neck
      {
        OFFSET 0 22.1894 -2.19456
        CHANNELS 3 Zrotation Xrotation Yrotation
        JOINT head
        {
          OFFSET -0.24384 7.07133 1.2192
          CHANNELS 3 Zrotation Xrotation Yrotation
          JOINT leftEye
          {
            OFFSET 4.14528 8.04674 8.04672
            CHANNELS 3 Zrotation Xrotation Yrotation
            End Site
            {
              OFFSET 1 0 0
            }
          }
          JOINT rightEye
          {
            OFFSET -3.6576 8.04674 8.04672
            CHANNELS 3 Zrotation Xrotation Yrotation
            End Site
            {
              OFFSET 1 0 0
            }
          }
        }
      }
      JOINT rCollar
      {
        OFFSET -2.68224 19.2634 -4.8768
        CHANNELS 3 Zrotation Xrotation Yrotation
        JOINT rShldr
        {
          OFFSET -8.77824 -1.95073 1.46304
          CHANNELS 3 Zrotation Xrotation Yrotation
          JOINT rForeArm
          {
            OFFSET -28.1742 -1.7115 0.48768
            CHANNELS 3 Zrotation Xrotation Yrotation
            JOINT rHand
            {
              OFFSET -22.5879 0.773209 7.07136
              CHANNELS 3 Zrotation Xrotation Yrotation
              JOINT rThumb1
              {
                OFFSET -1.2192 -0.487915 3.41376
                CHANNELS 3 Zrotation Xrotation Yrotation
                JOINT rThumb2
                {
                  OFFSET -3.37035 -0.52449 3.41376
                  CHANNELS 3 Zrotation Xrotation Yrotation
                  End Site
                  {
                    OFFSET -1.78271 -1.18214 1.43049
                  }
                }
              }
              JOINT rIndex1
              {
                OFFSET -7.75947 0.938293 5.60832
                CHANNELS 3 Zrotation Xrotation Yrotation
                JOINT rIndex2
                {
                  OFFSET -2.54057 -0.884171 1.56538
                  CHANNELS 3 Zrotation Xrotation Yrotation
                  End Site
                  {
                    OFFSET -1.62519 -0.234802 1.16502
                  }
                }
              }
              JOINT rMid1
              {
                OFFSET -8.24714 1.18213 3.41376
                CHANNELS 3 Zrotation Xrotation Yrotation
                JOINT rMid2
                {
                  OFFSET -3.10165 -0.590103 1.0647
                  CHANNELS 3 Zrotation Xrotation Yrotation
                  End Site
                  {
                    OFFSET -2.48547 -0.328903 0.83742
                  }
                }
              }
              JOINT rRing1
              {
                OFFSET -8.82822 0.546677 1.51678
                CHANNELS 3 Zrotation Xrotation Yrotation
                JOINT rRing2
                {
                  OFFSET -2.60934 -0.819778 -0.0198488
                  CHANNELS 3 Zrotation Xrotation Yrotation
                  End Site
                  {
                    OFFSET -2.33842 -0.294052 0.168128
                  }
                }
              }
              JOINT rPinky1
              {
                OFFSET -8.27202 -0.0477905 -0.4584
                CHANNELS 3 Zrotation Xrotation Yrotation
                JOINT rPinky2
                {
                  OFFSET -1.82734 -0.647385 -0.700984
                  CHANNELS 3 Zrotation Xrotation Yrotation
                  End Site
                  {
                    OFFSET -1.69225 -0.51767 -0.607171
                  }
                }
              }
            }
          }
        }
      }
      JOINT lCollar
      {
        OFFSET 2.68224 19.2634 -4.8768
        CHANNELS 3 Zrotation Xrotation Yrotation
        JOINT lShldr
        {
          OFFSET 8.77824 -1.95073 1.46304
          CHANNELS 3 Zrotation Xrotation Yrotation
          JOINT lForeArm
          {
            OFFSET 28.1742 -1.7115 0.48768
            CHANNELS 3 Zrotation Xrotation Yrotation
            JOINT lHand
            {
              OFFSET 22.5879 0.773209 7.07136
              CHANNELS 3 Zrotation Xrotation Yrotation
              JOINT lThumb1
              {
                OFFSET 1.2192 -0.487915 3.41376
                CHANNELS 3 Zrotation Xrotation Yrotation
                JOINT lThumb2
                {
                  OFFSET 3.37035 -0.52449 3.41376
                  CHANNELS 3 Zrotation Xrotation Yrotation
                  End Site
                  {
                    OFFSET 1.78271 -1.18214 1.43049
                  }
                }
              }
              JOINT lIndex1
              {
                OFFSET 7.75947 0.938293 5.60832
                CHANNELS 3 Zrotation Xrotation Yrotation
                JOINT lIndex2
                {
                  OFFSET 2.54057 -0.884171 1.56538
                  CHANNELS 3 Zrotation Xrotation Yrotation
                  End Site
                  {
                    OFFSET 1.62519 -0.234802 1.16502
                  }
                }
              }
              JOINT lMid1
              {
                OFFSET 8.24714 1.18213 3.41376
                CHANNELS 3 Zrotation Xrotation Yrotation
                JOINT lMid2
                {
                  OFFSET 3.10165 -0.590103 1.0647
                  CHANNELS 3 Zrotation Xrotation Yrotation
                  End Site
                  {
                    OFFSET 2.48547 -0.328903 0.83742
                  }
                }
              }
              JOINT lRing1
              {
                OFFSET 8.82822 0.546677 1.51678
                CHANNELS 3 Zrotation Xrotation Yrotation
                JOINT lRing2
                {
                  OFFSET 2.60934 -0.819778 -0.0198488
                  CHANNELS 3 Zrotation Xrotation Yrotation
                  End Site
                  {
                    OFFSET 2.33842 -0.294052 0.168128
                  }
                }
              }
              JOINT lPinky1
              {
                OFFSET 8.27202 -0.0477905 -0.4584
                CHANNELS 3 Zrotation Xrotation Yrotation
                JOINT lPinky2
                {
                  OFFSET 1.82734 -0.647385 -0.700984
                  CHANNELS 3 Zrotation Xrotation Yrotation
                  End Site
                  {
                    OFFSET 1.69225 -0.51767 -0.607171
                  }
                }
              }
            }
          }
        }
      }
    }
  }
  JOINT rButtock
  {
    OFFSET -8.77824 4.35084 1.2192
    CHANNELS 3 Zrotation Xrotation Yrotation
    JOINT rThigh
    {
      OFFSET 0 -1.70687 -2.19456
      CHANNELS 3 Zrotation Xrotation Yrotation
      JOINT rShin
      {
        OFFSET 0 -36.8199 0.73152
        CHANNELS 3 Zrotation Xrotation Yrotation
        JOINT rFoot
        {
          OFFSET 0.73152 -45.1104 -5.12064
          CHANNELS 3 Zrotation Xrotation Yrotation
          End Site
          {
            OFFSET -1.1221 -3.69964 12.103
          }
        }
      }
    }
  }
  JOINT lButtock
  {
    OFFSET 8.77824 4.35084 1.2192
    CHANNELS 3 Zrotation Xrotation Yrotation
    JOINT lThigh
    {
      OFFSET 0 -1.70687 -2.19456
      CHANNELS 3 Zrotation Xrotation Yrotation
      JOINT lShin
      {
        OFFSET 0 -36.8199 0.73152
        CHANNELS 3 Zrotation Xrotation Yrotation
        JOINT lFoot
        {
          OFFSET -0.73152 -45.1104 -5.12064
          CHANNELS 3 Zrotation Xrotation Yrotation
          End Site
          {
            OFFSET 1.1221 -3.69964 12.103
          }
        }
      }
    }
  }
}
MOTION
Frames:	5
Frame Time:	0.00833333
81.7465 85.0114 -183.602 0.0 0.0 0.0 0.0256065 -6.1923e-06 0.000728842 0.00706481 8.63062e-06 0.00122382 -3.19946e-16 0.0 3.49426e-18 -9.65969e-16 3.18055e-15 1.2424e-17 -0.0 0.0 0.0 -0.0 0.0 0.0 -1.00725e-16 -5.82377e-19 1.49089e-16 -1.61474e-15 -2.79541e-16 9.93923e-16 -5.76476e-14 1.59028e-14 3.18055e-15 -6.68457e-13 -2.36554e-14 3.18055e-15 -1.57778e-12 -1.45381e-14 2.22639e-14 -2.73329e-12 -1.90833e-14 2.94201e-14 -1.56841e-12 -1.35174e-14 9.54166e-15 7.73091 5.47488 0.417314 -1.5778e-12 -1.41137e-14 1.59028e-14 2.90554 0.965183 0.102902 -1.57026e-12 -1.41137e-14 1.98785e-14 10.2786 0.731801 0.0259123 -1.58392e-12 -1.35174e-14 2.8625e-14 2.22167 -0.733487 -0.20892 -1.97463e-16 -3.88251e-19 -1.49089e-16 -5.13909e-15 1.18028e-16 -9.93923e-16 -5.82439e-14 -1.55052e-14 -2.54444e-14 -6.70171e-13 2.17421e-14 3.81667e-14 -1.57743e-12 1.1304e-14 2.22639e-14 -2.71699e-12 1.27222e-14 5.24792e-14 -1.58272e-12 1.19271e-14 2.8625e-14 -7.73091 5.47488 -0.417314 -1.57681e-12 1.10325e-14 2.22639e-14 -2.90554 0.965183 -0.102902 -1.5852e-12 1.14301e-14 2.22639e-14 -10.2786 0.731801 -0.0259123 -1.57835e-12 1.19271e-14 1.27222e-14 -2.22167 -0.733487 0.20892 -2.03217e-16 0.0 -3.88251e-19 0.5123 -3.13364 -0.0420885 -0.00562802 0.1231 -0.0495524 -0.4928 3.00963 0.11736 2.03217e-16 0.0 3.88251e-19 -0.473325 -3.03453 0.0397104 0.00592198 -0.0564352 0.052175 0.492505 3.09005 -0.118955
84.3128 82.5611 -185.176 13.471 -8.92 7.8696 -1.8717 3.28548 -1.27813 1.10563 -1.08825 -0.348461 -2.42563 -1.11921 -0.250419 1.25788 -4.30266 0.524194 -0.0 0.0 0.0 -0.0 0.0 0.0 5.01587e-14 4.73602e-14 4.70995e-14 21.5634 9.93944 -8.37347 -20.3526 -18.1254 15.1561 0.019192 -3.07464 -0.429869 -2.41875e-10 4.18388e-10 -4.01071e-10 -4.14282e-10 7.18379e-10 -6.95909e-10 -2.41867e-10 4.18389e-10 -4.01085e-10 7.73091 5.47488 0.417314 -2.41875e-10 4.18388e-10 -4.01076e-10 2.90554 0.965183 0.102902 -2.4187e-10 4.18388e-10 -4.01073e-10 10.2786 0.731801 0.0259123 -2.4188e-10 4.18389e-10 -4.01065e-10 2.22167 -0.733487 -0.20892 5.00825e-14 4.73601e-14 4.68115e-14 -22.6436 10.7196 1.38574 25.8618 -23.5985 -14.1675 -0.122105 -7.76525 1.05549 5.07669e-11 5.2405e-10 5.75388e-11 8.75956e-11 9.11165e-10 9.99646e-11 5.07621e-11 5.24049e-10 5.75462e-11 -7.73091 5.47488 -0.417314 5.07675e-11 5.24053e-10 5.75397e-11 -2.90554 0.965183 -0.102902 5.07592e-11 5.24048e-10 5.75396e-11 -10.2786 0.731801 -0.0259123 5.07675e-11 5.2405e-10 5.75331e-11 -2.22167 -0.733487 0.20892 -2.03217e-16 0.0 -3.88251e-19 -1.79491 -17.0877 0.258081 -0.0889061 12.4437 0.035419 -0.477344 2.57696 -0.499149 2.03217e-16 0.0 3.88251e-19 -3.6881 -1.5132 -1.34347 -0.0503525 9.84506 -0.158167 0.897335 10.921 -3.87609
83.8148 82.8419 -181.869 13.5022 -8.9243 7.7702 -3.7447 6.71547 -2.64077 2.25169 -2.236 -0.718832 -4.99296 -2.32638 -0.509026 2.65458 -8.80871 1.09741 -0.0 0.0 0.0 -0.0 0.0 0.0 1.0634e-13 1.0138e-13 9.9119e-14 47.6545 19.738 -18.1099 -30.3232 -32.8369 35.9977 -0.0109996 -6.33281 -0.889619 -5.1482e-10 9.03237e-10 -8.35672e-10 -8.81958e-10 1.55132e-09 -1.45011e-09 -5.14815e-10 9.03238e-10 -8.35686e-10 7.73091 5.47488 0.417314 -5.14822e-10 9.03236e-10 -8.35676e-10 2.90554 0.965183 0.102902 -5.14819e-10 9.03236e-10 -8.35674e-10 10.2786 0.731801 0.0259123 -5.14824e-10 9.03238e-10 -8.35665e-10 2.22167 -0.733487 -0.20892 1.06286e-13 1.0138e-13 9.88395e-14 -47.1715 22.0391 2.98273 37.0926 -43.2241 -37.9518 0.0711027 -15.9531 2.23604 8.85541e-11 9.35053e-10 9.1823e-11 1.53422e-10 1.62903e-09 1.59337e-10 8.85499e-11 9.3505e-10 9.18316e-11 -7.73091 5.47488 -0.417314 8.85546e-11 9.35058e-10 9.1825e-11 -2.90554 0.965183 -0.102902 8.85464e-11 9.35049e-10 9.18247e-11 -10.2786 0.731801 -0.0259123 8.85563e-11 9.35051e-10 9.18216e-11 -2.22167 -0.733487 0.20892 -2.03217e-16 0.0 -3.88251e-19 -4.09189 -31.9221 0.679234 -0.219009 25.5348 0.142117 -0.474916 2.09378 -1.18828 2.03217e-16 0.0 3.88251e-19 -7.06367 0.185248 -2.83101 -0.029655 20.0842 -0.400612 2.527 19.0872 -8.24177
83.379 83.0216 -178.62 13.7645 -8.6461 7.6511 -5.2211 9.83667 -3.88677 3.26286 -3.26429 -1.04935 -7.3063 -3.35737 -0.752405 4.015 -12.9036 1.60879 -0.0 0.0 0.0 -0.0 0.0 0.0 1.50678e-13 1.42082e-13 1.41e-13 73.9783 27.1249 -28.0493 -29.8879 -37.3115 59.3252 -0.0823617 -9.22183 -1.30462 -7.22469e-10 1.25519e-09 -1.20326e-09 -1.23738e-09 2.15518e-09 -2.08779e-09 -7.22465e-10 1.2552e-09 -1.20327e-09 7.73091 5.47488 0.417314 -7.22471e-10 1.25519e-09 -1.20326e-09 2.90554 0.965183 0.102902 -7.22471e-10 1.25519e-09 -1.20326e-09 10.2786 0.731801 0.0259123 -7.22471e-10 1.2552e-09 -1.20325e-09 2.22167 -0.733487 -0.20892 1.50642e-13 1.42081e-13 1.40733e-13 -69.7226 32.0764 4.82217 31.1969 -48.0276 -69.8245 0.556046 -23.2627 3.41538 1.55456e-10 1.57213e-09 1.72572e-10 2.68221e-10 2.73347e-09 2.99789e-10 1.55452e-10 1.57212e-09 1.72581e-10 -7.73091 5.47488 -0.417314 1.55456e-10 1.57214e-09 1.72575e-10 -2.90554 0.965183 -0.102902 1.55448e-10 1.57212e-09 1.72574e-10 -10.2786 0.731801 -0.0259123 1.55459e-10 1.57212e-09 1.72574e-10 -2.22167 -0.733487 0.20892 -2.03217e-16 0.0 -3.88251e-19 -5.81752 -44.9904 1.16532 -0.385694 37.0845 0.254298 -0.474378 1.71113 -1.7311 2.03217e-16 0.0 3.88251e-19 -9.89748 1.5243 -4.10977 0.0815591 29.6465 -0.658002 5.07262 26.1117 -12.4699
82.9137 83.1645 -175.296 13.9781 -8.4456 7.3801 -6.01152 12.204 -4.79585 3.96488 -3.99444 -1.27879 -8.96397 -3.94815 -0.95657 5.10947 -15.975 1.93127 -0.0 0.0 0.0 -0.0 0.0 0.0 1.65405e-13 1.49486e-13 1.57537e-13 93.9331 31.1469 -35.5935 -28.4012 -34.3126 74.2123 -0.15608 -11.19 -1.59316 -7.66876e-10 1.27492e-09 -1.40331e-09 -1.31217e-09 2.18633e-09 -2.43414e-09 -7.66872e-10 1.27492e-09 -1.40332e-09 7.73091 5.47488 0.417314 -7.66877e-10 1.27492e-09 -1.40331e-09 2.90554 0.965183 0.102902 -7.66878e-10 1.27492e-09 -1.40331e-09 10.2786 0.731801 0.0259123 -7.66878e-10 1.27492e-09 -1.4033e-09 2.22167 -0.733487 -0.20892 1.65383e-13 1.49486e-13 1.57288e-13 -86.0851 38.9737 6.69113 27.5483 -42.3375 -88.2229 1.10393 -28.4076 4.3595 2.95143e-10 2.77438e-09 3.69482e-10 5.05449e-10 4.80436e-09 6.42937e-10 2.95139e-10 2.77438e-09 3.69491e-10 -7.73091 5.47488 -0.417314 2.95143e-10 2.77439e-09 3.69485e-10 -2.90554 0.965183 -0.102902 2.95135e-10 2.77438e-09 3.69484e-10 -10.2786 0.731801 -0.0259123 2.95147e-10 2.77438e-09 3.69485e-10 -2.22167 -0.733487 0.20892 -2.03217e-16 0.0 -3.88251e-19 -6.67977 -53.6509 1.46152 -0.53048 44.7807 0.323959 -0.454183 1.57996 -1.9089 2.03217e-16 0.0 3.88251e-19 -11.5582 1.97302 -4.86183 0.253903 37.5182 -0.889457 7.29425 30.7688 -15.305
